# xmcd
#
# Track frame offsets:
#       150
#       17952
#       31665
#       48895
#       64207
#       76132
#       90400
#       105657
#       119432
#       135907
#       148465
#       161945
#
# Disc length: 2448 seconds
#
# Revision: 1
# Processed by: cddbd v1.5.1PL2 Copyright (c) Steve Scherf et al.
# Submitted via: MusiCat 1.1
#
DISCID=9b098e0c
DTITLE=Various Artist - Hits to Remember [CD1]
DYEAR=1900
DGENRE=
TTITLE0=After the Loving- Englebert Humperdinck
TTITLE1=Raindrops Keep Falling on My Head - B J Thomas
TTITLE2=Deja Vu - Dionne Warwick
TTITLE3=What Kind Of Fool Am I - Sammy Davis Jr
TTITLE4=Up Up and Away - The Fifth Dimension
TTITLE5=Downtown - Petula Clark
TTITLE6=Delilah - Tom Jones
TTITLE7=Wichita Lineman - Glen Campbell
TTITLE8=Alone Again (Naturally) - Glibert O'Sullivan
TTITLE9=Spanish Eyes - Al Martino
TTITLE10=Grazing in the Grass - Friends of Distinction
TTITLE11=Don't Worry Be Happy - Bobby McFerrin
EXTD=\n\n
EXTT0=
EXTT1=
EXTT2=
EXTT3=
EXTT4=
EXTT5=
EXTT6=
EXTT7=
EXTT8=
EXTT9=
EXTT10=
EXTT11=
PLAYORDER=
